HIERARCHY
ROOT root
{
	OFFSET	0	13.1	24.9
	CHANNELS 6  Xposition Yposition Zposition Xrotation Yrotation Zrotation
	JOINT spine_1
	{
		OFFSET	0	9.99999	0
		CHANNELS 3  Xrotation Yrotation Zrotation
		JOINT spine_2
		{
			OFFSET	0	112	-10
			CHANNELS 3  Xrotation Yrotation Zrotation
			JOINT spine_3
			{
				OFFSET	0	206.5	19.3
				CHANNELS 3  Xrotation Yrotation Zrotation
				JOINT spine_4
				{
					OFFSET	0	110.4	14.6
					CHANNELS 3  Xrotation Yrotation Zrotation
					JOINT neck_1
					{
						OFFSET	0	71.8	-50.3
						CHANNELS 3  Xrotation Yrotation Zrotation
						JOINT neck_2
						{
							OFFSET	0	86.2	-25.8
							CHANNELS 3  Xrotation Yrotation Zrotation
							JOINT head_ee
							{
								OFFSET	0	179.8	-8.7
								CHANNELS 3  Xrotation Yrotation Zrotation
								End Site
								{
									OFFSET	1	0	0
								}
							}
						}
					}
					JOINT left_clavicle
					{
						OFFSET	-43.2	22.4	-70.8
						CHANNELS 3  Xrotation Yrotation Zrotation
						JOINT left_shoulder
						{
							OFFSET	-93.9	-5.79999	48.7
							CHANNELS 3  Xrotation Yrotation Zrotation
							JOINT left_elbow
							{
								OFFSET	-291.4	-30.8	15.2
								CHANNELS 3  Xrotation Yrotation Zrotation
								JOINT left_lowarm_twist
								{
									OFFSET	-110.7	-3.89999	13.6
									CHANNELS 3  Xrotation Yrotation Zrotation
									JOINT left_hand
									{
										OFFSET	-110.7	-3.89999	13.6
										CHANNELS 3  Xrotation Yrotation Zrotation
										JOINT left_ee
										{
											OFFSET	-80.8	-5.10001	12.1
											CHANNELS 3  Xrotation Yrotation Zrotation
											End Site
											{
												OFFSET	1	0	0
											}
										}
									}
								}
							}
						}
					}
					JOINT right_clavicle
					{
						OFFSET	43.2	22.4	-70.8
						CHANNELS 3  Xrotation Yrotation Zrotation
						JOINT right_shoulder
						{
							OFFSET	93.9	-5.79999	48.7
							CHANNELS 3  Xrotation Yrotation Zrotation
							JOINT right_elbow
							{
								OFFSET	291.4	-30.8	15.2
								CHANNELS 3  Xrotation Yrotation Zrotation
								JOINT right_lowarm_twist
								{
									OFFSET	110.7	-3.89999	13.6
									CHANNELS 3  Xrotation Yrotation Zrotation
									JOINT right_hand
									{
										OFFSET	110.7	-3.89999	13.6
										CHANNELS 3  Xrotation Yrotation Zrotation
										JOINT right_ee
										{
											OFFSET	80.8	-5.10001	12.1
											CHANNELS 3  Xrotation Yrotation Zrotation
											End Site
											{
												OFFSET	1	0	0
											}
										}
									}
								}
							}
						}
					}
				}
			}
		}
	}
	JOINT left_hip
	{
		OFFSET	-82.8	-127.5	0.300001
		CHANNELS 3  Xrotation Yrotation Zrotation
		JOINT left_knee
		{
			OFFSET	-28.2	-396.7	2.2
			CHANNELS 3  Xrotation Yrotation Zrotation
			JOINT left_ankle
			{
				OFFSET	-11.7	-411.3	35.4
				CHANNELS 3  Xrotation Yrotation Zrotation
				JOINT left_toes
				{
					OFFSET	0	-60	-88.6
					CHANNELS 3  Xrotation Yrotation Zrotation
					JOINT left_foot_ee
					{
						OFFSET	-22.5	-16.5	-42.2
						CHANNELS 3  Xrotation Yrotation Zrotation
						End Site
						{
							OFFSET	1	0	0
						}
					}
				}
			}
		}
	}
	JOINT right_hip
	{
		OFFSET	82.8	-127.5	0.300001
		CHANNELS 3  Xrotation Yrotation Zrotation
		JOINT right_knee
		{
			OFFSET	28.2	-396.7	2.2
			CHANNELS 3  Xrotation Yrotation Zrotation
			JOINT right_ankle
			{
				OFFSET	11.7	-411.3	35.4
				CHANNELS 3  Xrotation Yrotation Zrotation
				JOINT right_toes
				{
					OFFSET	0	-60	-88.6
					CHANNELS 3  Xrotation Yrotation Zrotation
					JOINT right_foot_ee
					{
						OFFSET	22.5	-16.5	-42.2
						CHANNELS 3  Xrotation Yrotation Zrotation
						End Site
						{
							OFFSET	1	0	0
						}
					}
				}
			}
		}
	}
}
MOTION
Frames: 10
Frame Time: 0.02
1041.4 574.639 -1682.42 -5.98613083637 74.5900263361 1.75464658654 1.533 0.579905 1.98625 1.53508 0.452366 2.01911 1.55143 0.0740379 2.06782 1.54569 0.399614 2.0302 -20.3475 3.63606 0.595173 -20.4124 6.71311 2.09463 -0.0 0.0 -0.0 -4.12389 0.0169248 -8.02279 -15.5861 -30.7245 80.339 0.388075 -10.882 0.0369644 -30.2393 -1.97788 3.27525 4.89202 12.0681 39.3023 -0.0 0.0 -0.0 10.3117 -1.16644 -20.2332 -16.1779 25.2491 -49.6483 1.70465 40.1755 -0.623441 12.7318 -0.271764 1.60034 -0.522335 21.939 12.8147 0.0 0.0 0.0 25.9804 -10.5928 5.83182 -14.068 0.31913 2.12992 22.5981 17.2864 -3.09822 -40.2882 0.0 0.0 -0.0 0.0 -0.0 -8.79675 6.65959 1.78764 -8.19991 -0.249761 -1.23258 42.0807 -13.9518 5.09883 -2.79973 0.0 0.0 0.0 0.0 0.0 
1041.4 574.639 -1682.42 -6.32284651329 75.4262423058 2.10321769656 1.533 0.579905 1.98625 1.53508 0.452366 2.01911 1.55143 0.0740379 2.06782 1.54569 0.399614 2.0302 -20.3475 3.63606 0.595173 -20.4124 6.71311 2.09463 -0.0 0.0 -0.0 -4.12389 0.0169248 -8.02279 -15.5861 -30.7245 80.339 0.388075 -10.882 0.0369644 -30.2393 -1.97788 3.27525 4.89202 12.0681 39.3023 -0.0 0.0 -0.0 10.3117 -1.16644 -20.2332 -16.1779 25.2491 -49.6483 1.70465 40.1755 -0.623441 12.7318 -0.271764 1.60034 -0.522335 21.939 12.8147 0.0 0.0 0.0 25.9804 -10.5928 5.83182 -14.068 0.31913 2.12992 22.5981 17.2864 -3.09822 -40.2882 0.0 0.0 -0.0 0.0 -0.0 -8.79675 6.65959 1.78764 -8.19991 -0.249761 -1.23258 42.0807 -13.9518 5.09883 -2.79973 0.0 0.0 0.0 0.0 0.0 
1041.4 574.639 -1682.42 -6.80829880094 76.4814531475 2.60361070074 1.533 0.579905 1.98625 1.53508 0.452366 2.01911 1.55143 0.0740379 2.06782 1.54569 0.399614 2.0302 -20.3475 3.63606 0.595173 -20.4124 6.71311 2.09463 -0.0 0.0 -0.0 -4.12389 0.0169248 -8.02279 -15.5861 -30.7245 80.339 0.388075 -10.882 0.0369644 -30.2393 -1.97788 3.27525 4.89202 12.0681 39.3023 -0.0 0.0 -0.0 10.3117 -1.16644 -20.2332 -16.1779 25.2491 -49.6483 1.70465 40.1755 -0.623441 12.7318 -0.271764 1.60034 -0.522335 21.939 12.8147 0.0 0.0 0.0 25.9804 -10.5928 5.83182 -14.068 0.31913 2.12992 22.5981 17.2864 -3.09822 -40.2882 0.0 0.0 -0.0 0.0 -0.0 -8.79675 6.65959 1.78764 -8.19991 -0.249761 -1.23258 42.0807 -13.9518 5.09883 -2.79973 0.0 0.0 0.0 0.0 0.0 
1041.4 574.639 -1682.42 -7.20461690472 77.2343651594 3.01057898856 1.533 0.579905 1.98625 1.53508 0.452366 2.01911 1.55143 0.0740379 2.06782 1.54569 0.399614 2.0302 -20.3475 3.63606 0.595173 -20.4124 6.71311 2.09463 -0.0 0.0 -0.0 -4.12389 0.0169248 -8.02279 -15.5861 -30.7245 80.339 0.388075 -10.882 0.0369644 -30.2393 -1.97788 3.27525 4.89202 12.0681 39.3023 -0.0 0.0 -0.0 10.3117 -1.16644 -20.2332 -16.1779 25.2491 -49.6483 1.70465 40.1755 -0.623441 12.7318 -0.271764 1.60034 -0.522335 21.939 12.8147 0.0 0.0 0.0 25.9804 -10.5928 5.83182 -14.068 0.31913 2.12992 22.5981 17.2864 -3.09822 -40.2882 0.0 0.0 -0.0 0.0 -0.0 -8.79675 6.65959 1.78764 -8.19991 -0.249761 -1.23258 42.0807 -13.9518 5.09883 -2.79973 0.0 0.0 0.0 0.0 0.0 
1041.4 574.639 -1682.42 -7.81224394493 78.2365352934 3.63237362113 1.533 0.579905 1.98625 1.53508 0.452366 2.01911 1.55143 0.0740379 2.06782 1.54569 0.399614 2.0302 -20.3475 3.63606 0.595173 -20.4124 6.71311 2.09463 -0.0 0.0 -0.0 -4.12389 0.0169248 -8.02279 -15.5861 -30.7245 80.339 0.388075 -10.882 0.0369644 -30.2393 -1.97788 3.27525 4.89202 12.0681 39.3023 -0.0 0.0 -0.0 10.3117 -1.16644 -20.2332 -16.1779 25.2491 -49.6483 1.70465 40.1755 -0.623441 12.7318 -0.271764 1.60034 -0.522335 21.939 12.8147 0.0 0.0 0.0 25.9804 -10.5928 5.83182 -14.068 0.31913 2.12992 22.5981 17.2864 -3.09822 -40.2882 0.0 0.0 -0.0 0.0 -0.0 -8.79675 6.65959 1.78764 -8.19991 -0.249761 -1.23258 42.0807 -13.9518 5.09883 -2.79973 0.0 0.0 0.0 0.0 0.0 
1041.4 574.639 -1682.42 -8.33517319899 78.9793118207 4.16580106332 1.533 0.579905 1.98625 1.53508 0.452366 2.01911 1.55143 0.0740379 2.06782 1.54569 0.399614 2.0302 -20.3475 3.63606 0.595173 -20.4124 6.71311 2.09463 -0.0 0.0 -0.0 -4.12389 0.0169248 -8.02279 -15.5861 -30.7245 80.339 0.388075 -10.882 0.0369644 -30.2393 -1.97788 3.27525 4.89202 12.0681 39.3023 -0.0 0.0 -0.0 10.3117 -1.16644 -20.2332 -16.1779 25.2491 -49.6483 1.70465 40.1755 -0.623441 12.7318 -0.271764 1.60034 -0.522335 21.939 12.8147 0.0 0.0 0.0 25.9804 -10.5928 5.83182 -14.068 0.31913 2.12992 22.5981 17.2864 -3.09822 -40.2882 0.0 0.0 -0.0 0.0 -0.0 -8.79675 6.65959 1.78764 -8.19991 -0.249761 -1.23258 42.0807 -13.9518 5.09883 -2.79973 0.0 0.0 0.0 0.0 0.0 
1041.4 574.639 -1682.42 -9.26834508583 80.0923844098 5.11470977984 1.533 0.579905 1.98625 1.53508 0.452366 2.01911 1.55143 0.0740379 2.06782 1.54569 0.399614 2.0302 -20.3475 3.63606 0.595173 -20.4124 6.71311 2.09463 -0.0 0.0 -0.0 -4.12389 0.0169248 -8.02279 -15.5861 -30.7245 80.339 0.388075 -10.882 0.0369644 -30.2393 -1.97788 3.27525 4.89202 12.0681 39.3023 -0.0 0.0 -0.0 10.3117 -1.16644 -20.2332 -16.1779 25.2491 -49.6483 1.70465 40.1755 -0.623441 12.7318 -0.271764 1.60034 -0.522335 21.939 12.8147 0.0 0.0 0.0 25.9804 -10.5928 5.83182 -14.068 0.31913 2.12992 22.5981 17.2864 -3.09822 -40.2882 0.0 0.0 -0.0 0.0 -0.0 -8.79675 6.65959 1.78764 -8.19991 -0.249761 -1.23258 42.0807 -13.9518 5.09883 -2.79973 0.0 0.0 0.0 0.0 0.0 
1041.4 574.639 -1682.42 -10.7685416814 81.4706224915 6.63442333283 1.533 0.579905 1.98625 1.53508 0.452366 2.01911 1.55143 0.0740379 2.06782 1.54569 0.399614 2.0302 -20.3475 3.63606 0.595173 -20.4124 6.71311 2.09463 -0.0 0.0 -0.0 -4.12389 0.0169248 -8.02279 -15.5861 -30.7245 80.339 0.388075 -10.882 0.0369644 -30.2393 -1.97788 3.27525 4.89202 12.0681 39.3023 -0.0 0.0 -0.0 10.3117 -1.16644 -20.2332 -16.1779 25.2491 -49.6483 1.70465 40.1755 -0.623441 12.7318 -0.271764 1.60034 -0.522335 21.939 12.8147 0.0 0.0 0.0 25.9804 -10.5928 5.83182 -14.068 0.31913 2.12992 22.5981 17.2864 -3.09822 -40.2882 0.0 0.0 -0.0 0.0 -0.0 -8.79675 6.65959 1.78764 -8.19991 -0.249761 -1.23258 42.0807 -13.9518 5.09883 -2.79973 0.0 0.0 0.0 0.0 0.0 
1041.4 574.639 -1682.42 -12.9216184789 82.881346366 8.80756226718 1.533 0.579905 1.98625 1.53508 0.452366 2.01911 1.55143 0.0740379 2.06782 1.54569 0.399614 2.0302 -20.3475 3.63606 0.595173 -20.4124 6.71311 2.09463 -0.0 0.0 -0.0 -4.12389 0.0169248 -8.02279 -15.5861 -30.7245 80.339 0.388075 -10.882 0.0369644 -30.2393 -1.97788 3.27525 4.89202 12.0681 39.3023 -0.0 0.0 -0.0 10.3117 -1.16644 -20.2332 -16.1779 25.2491 -49.6483 1.70465 40.1755 -0.623441 12.7318 -0.271764 1.60034 -0.522335 21.939 12.8147 0.0 0.0 0.0 25.9804 -10.5928 5.83182 -14.068 0.31913 2.12992 22.5981 17.2864 -3.09822 -40.2882 0.0 0.0 -0.0 0.0 -0.0 -8.79675 6.65959 1.78764 -8.19991 -0.249761 -1.23258 42.0807 -13.9518 5.09883 -2.79973 0.0 0.0 0.0 0.0 0.0 
992.605029062 586.34 -1678.68719942 12.7756063312 86.4290306656 -15.2597630212 0.79542 0.503512 1.69502 0.796932 0.39465 1.72361 0.809456 0.0486267 1.76754 0.805245 0.327123 1.73769 -21.4678 4.81328 0.00362703 -21.6068 9.28494 2.1475 -0.0 0.0 -0.0 -3.21307 -3.60865 -6.86145 -12.7894 -31.7048 77.2449 0.479291 -13.3564 0.0561193 -29.6625 -1.92472 3.22381 5.03855 11.0297 40.2414 -0.0 0.0 -0.0 9.99684 3.27889 -19.775 -17.8353 22.2978 -53.1277 1.2096 30.9289 -0.334655 15.1694 -0.282914 1.91146 -0.861877 22.3845 15.2867 0.0 0.0 0.0 21.8568 -11.9028 4.82591 -16.4381 0.321043 2.49353 17.5564 16.9331 -2.45767 -40.2347 0.0 0.0 -0.0 0.0 -0.0 -9.54266 6.88849 2.02225 -11.4484 -0.299524 -1.72849 41.86 -12.9237 5.06624 -3.02626 0.0 0.0 0.0 0.0 0.0 
